<svg width="321" height="406" viewBox="0 0 321 406" fill="none" xmlns="http://www.w3.org/2000/svg">
<path d="M1.62401 239.005C17.1173 294.283 78.7566 313.847 107.64 316.718L109.742 368.289C18.0593 369.603 -0.537752 282.647 1.62401 239.005Z" fill="#294F69"/>
<ellipse cx="224.056" cy="337.981" rx="44.703" ry="44.1891" fill="#3B6480"/>
<path d="M320.168 382.17C320.168 375.882 315.105 369.851 306.093 365.404C297.08 360.957 284.857 358.459 272.112 358.459C259.367 358.459 247.144 360.957 238.131 365.404C229.119 369.851 224.056 375.882 224.056 382.17L272.112 382.17L320.168 382.17Z" fill="#3B6480"/>
<ellipse cx="44.703" cy="44.1891" rx="44.703" ry="44.1891" transform="matrix(-1 0 0 1 140.815 293.792)" fill="#3B6480"/>
<path d="M2.28903e-05 382.17C2.28898e-05 375.882 5.06302 369.851 14.0752 365.404C23.0874 360.957 35.3106 358.459 48.0558 358.459C60.8009 358.459 73.0241 360.957 82.0363 365.404C91.0485 369.851 96.1115 375.882 96.1115 382.17L48.0558 382.17L2.28903e-05 382.17Z" fill="#3B6480"/>
<ellipse cx="163.048" cy="304.179" rx="80.0419" ry="80.1252" fill="#294F69"/>
<path d="M116.972 97.9307C97.614 94.6155 61.8017 71.5752 73.4165 5.93506C102.453 22.5108 151.816 64.1161 116.972 97.9307Z" fill="#3B6480"/>
<path d="M204.678 91.9956C224.036 88.6805 259.848 65.6401 248.234 -1.03133e-10C219.197 16.5758 169.834 58.181 204.678 91.9956Z" fill="#3B6480"/>
<ellipse cx="163.048" cy="176.572" rx="106.723" ry="102.382" fill="#3B6480"/>
<ellipse cx="158.602" cy="259.665" rx="44.4677" ry="44.514" fill="url(#paint0_linear_161_265)"/>
<path d="M157.86 256.697L144.382 240.005L171.339 240.005L157.86 256.697Z" fill="#D9D9D9"/>
<ellipse cx="231.232" cy="182.507" rx="51.879" ry="51.933" fill="#D9D9D9"/>
<path d="M269.771 183.938C269.771 205.274 252.517 222.57 231.232 222.57C209.948 222.57 192.694 205.274 192.694 183.938C192.694 162.602 209.948 145.306 231.232 145.306C252.517 145.306 269.771 162.602 269.771 183.938Z" fill="#294F69"/>
<path d="M269.771 163.907C269.771 175.76 260.185 185.369 248.361 185.369C236.536 185.369 226.95 175.76 226.95 163.907C226.95 152.054 236.536 142.445 248.361 142.445C260.185 142.445 269.771 152.054 269.771 163.907Z" fill="#D9D9D9"/>
<ellipse cx="90.4178" cy="186.959" rx="51.879" ry="51.933" fill="#D9D9D9"/>
<path d="M128.956 188.389C128.956 209.725 111.702 227.021 90.4178 227.021C69.1334 227.021 51.8791 209.725 51.8791 188.389C51.8791 167.054 69.1334 149.758 90.4178 149.758C111.702 149.758 128.956 167.054 128.956 188.389Z" fill="#294F69"/>
<path d="M128.956 168.358C128.956 180.211 119.371 189.82 107.546 189.82C95.7214 189.82 86.1357 180.211 86.1357 168.358C86.1357 156.505 95.7214 146.896 107.546 146.896C119.371 146.896 128.956 156.505 128.956 168.358Z" fill="#D9D9D9"/>
<path d="M100.821 301.211C146.089 330.884 197.73 313.575 217.892 301.211C217.892 325.613 205.99 374.612 158.381 375.392C110.772 376.173 100.171 326.264 100.821 301.211Z" fill="url(#paint1_linear_161_265)"/>
<path d="M279.41 147.293C274.973 135.747 264.848 126.93 251.263 122.78C237.678 118.631 221.745 119.49 206.97 125.168C192.195 130.846 179.788 140.878 172.478 153.058C165.168 165.237 163.554 178.566 167.991 190.112L223.7 168.703L279.41 147.293Z" fill="#3B6480"/>
<defs>
<linearGradient id="paint0_linear_161_265" x1="158.602" y1="215.151" x2="158.602" y2="304.179" gradientUnits="userSpaceOnUse">
<stop stop-color="#3B6480"/>
<stop offset="1" stop-color="#294F69"/>
</linearGradient>
<linearGradient id="paint1_linear_161_265" x1="100.821" y1="301.211" x2="159.378" y2="375.374" gradientUnits="userSpaceOnUse">
<stop stop-color="#3B6480"/>
<stop offset="1" stop-color="#294F69"/>
</linearGradient>
</defs>
</svg>
